<?xml version="1.0" encoding="UTF-8"?>
<svg width="44px" height="44px" viewBox="0 0 44 44" version="1.1" xmlns="http://www.w3.org/2000/svg" xmlns:xlink="http://www.w3.org/1999/xlink">
    <!-- Generator: Sketch 47.1 (45422) - http://www.bohemiancoding.com/sketch -->
    <title>Instagram</title>
    <desc>Created with Sketch.</desc>
    <defs>
        <linearGradient x1="100%" y1="90.0369533%" x2="30.2462768%" y2="0%" id="linearGradient-1">
            <stop stop-color="#CF3085" offset="0%"></stop>
            <stop stop-color="#D42F7F" offset="67.882811%"></stop>
            <stop stop-color="#5F4BC8" offset="100%"></stop>
        </linearGradient>
        <linearGradient x1="35.9909942%" y1="83.2085973%" x2="50%" y2="50%" id="linearGradient-2">
            <stop stop-color="#F06A3A" offset="0%"></stop>
            <stop stop-color="#D53089" stop-opacity="0" offset="100%"></stop>
        </linearGradient>
        <linearGradient x1="29.8729115%" y1="100%" x2="43.8111855%" y2="59.5040199%" id="linearGradient-3">
            <stop stop-color="#FFDC84" offset="0%"></stop>
            <stop stop-color="#F66834" stop-opacity="0" offset="100%"></stop>
        </linearGradient>
        <path d="M21.9943571,4.01135714 C17.1073571,4.01135714 16.4945714,4.03207143 14.5752857,4.11964286 C12.66,4.207 11.3519286,4.51121429 10.2073571,4.95607143 C9.02407143,5.41585714 8.02057143,6.03114286 7.02014286,7.0315 C6.01978571,8.03192857 5.4045,9.03542857 4.94471429,10.2187143 C4.49985714,11.3632857 4.19564286,12.6713571 4.10828571,14.5866429 C4.02071429,16.5059286 4,17.1187143 4,22.0057143 C4,26.8926429 4.02071429,27.5054286 4.10828571,29.4247143 C4.19564286,31.34 4.49985714,32.6480714 4.94471429,33.7926429 C5.4045,34.9759286 6.01978571,35.9794286 7.02014286,36.9798571 C8.02057143,37.9802143 9.02407143,38.5955 10.2073571,39.0553571 C11.3519286,39.5001429 12.66,39.8043571 14.5752857,39.8917143 C16.4945714,39.9792857 17.1073571,40 21.9943571,40 C26.8812857,40 27.4940714,39.9792857 29.4133571,39.8917143 C31.3286429,39.8043571 32.6367143,39.5001429 33.7812857,39.0553571 C34.9645714,38.5955 35.9680714,37.9802143 36.9685,36.9798571 C37.9688571,35.9794286 38.5841429,34.9759286 39.044,33.7926429 C39.4887857,32.6480714 39.793,31.34 39.8803571,29.4247143 C39.9679286,27.5054286 39.9886429,26.8926429 39.9886429,22.0057143 C39.9886429,17.1187143 39.9679286,16.5059286 39.8803571,14.5866429 C39.793,12.6713571 39.4887857,11.3632857 39.044,10.2187143 C38.5841429,9.03542857 37.9688571,8.03192857 36.9685,7.0315 C35.9680714,6.03114286 34.9645714,5.41585714 33.7812857,4.95607143 C32.6367143,4.51121429 31.3286429,4.207 29.4133571,4.11964286 C27.4940714,4.03207143 26.8812857,4.01135714 21.9943571,4.01135714 Z M21.9943571,7.25357143 C26.799,7.25357143 27.3681429,7.27192857 29.2655714,7.3585 C31.02,7.4385 31.9727857,7.73164286 32.6068571,7.97807143 C33.4467857,8.3045 34.0462143,8.69442857 34.6758571,9.32414286 C35.3055714,9.95378571 35.6955,10.5532143 36.0219286,11.3931429 C36.2683571,12.0272143 36.5615,12.98 36.6415,14.7344286 C36.7280714,16.6318571 36.7464286,17.201 36.7464286,22.0057143 C36.7464286,26.8103571 36.7280714,27.3795 36.6415,29.2769286 C36.5615,31.0313571 36.2683571,31.9841429 36.0219286,32.6182143 C35.6955,33.4581429 35.3055714,34.0575714 34.6758571,34.6872143 C34.0462143,35.3169286 33.4467857,35.7068571 32.6068571,36.0332857 C31.9727857,36.2797143 31.02,36.5728571 29.2655714,36.6528571 C27.3684286,36.7394286 26.7993571,36.7577857 21.9943571,36.7577857 C17.1892857,36.7577857 16.6202857,36.7394286 14.7230714,36.6528571 C12.9686429,36.5728571 12.0158571,36.2797143 11.3817857,36.0332857 C10.5418571,35.7068571 9.94242857,35.3169286 9.31278571,34.6872143 C8.68314286,34.0575714 8.29314286,33.4581429 7.96671429,32.6182143 C7.72028571,31.9841429 7.42714286,31.0313571 7.34714286,29.2769286 C7.26057143,27.3795 7.24221429,26.8103571 7.24221429,22.0057143 C7.24221429,17.201 7.26057143,16.6318571 7.34714286,14.7344286 C7.42714286,12.98 7.72028571,12.0272143 7.96671429,11.3931429 C8.29314286,10.5532143 8.68307143,9.95378571 9.31278571,9.32414286 C9.94242857,8.69442857 10.5418571,8.3045 11.3817857,7.97807143 C12.0158571,7.73164286 12.9686429,7.4385 14.7230714,7.3585 C16.6205,7.27192857 17.1896429,7.25357143 21.9943571,7.25357143 L21.9943571,7.25357143 Z M21.9943571,28.0037857 C18.6816429,28.0037857 15.9962143,25.3183571 15.9962143,22.0057143 C15.9962143,18.693 18.6816429,16.0075714 21.9943571,16.0075714 C25.307,16.0075714 27.9924286,18.693 27.9924286,22.0057143 C27.9924286,25.3183571 25.307,28.0037857 21.9943571,28.0037857 Z M21.9943571,12.7653571 C27.0976429,12.7653571 31.2346429,16.9023571 31.2346429,22.0057143 C31.2346429,27.109 27.0976429,31.246 21.9943571,31.246 C16.891,31.246 12.754,27.109 12.754,22.0057143 C12.754,16.9023571 16.891,12.7653571 21.9943571,12.7653571 Z M33.7590714,12.4002857 C33.7590714,13.5928571 32.7922857,14.5595714 31.5997143,14.5595714 C30.4072143,14.5595714 29.4404286,13.5928571 29.4404286,12.4002857 C29.4404286,11.2077143 30.4072143,10.2409286 31.5997143,10.2409286 C32.7922857,10.2409286 33.7590714,11.2077143 33.7590714,12.4002857 Z" id="path-4"></path>
    </defs>
    <g id="Page-1" stroke="none" stroke-width="1" fill="none" fill-rule="evenodd">
        <g id="Instagram">
            <mask id="mask-5" fill="white">
                <use xlink:href="#path-4"></use>
            </mask>
            <g id="Mask">
                <use fill="#111111" xlink:href="#path-4"></use>
                <use fill="url(#linearGradient-1)" xlink:href="#path-4"></use>
                <use fill="url(#linearGradient-2)" xlink:href="#path-4"></use>
                <use fill="url(#linearGradient-3)" xlink:href="#path-4"></use>
            </g>
        </g>
    </g>
</svg>