<?xml version="1.0" encoding="UTF-8"?>
<svg width="44px" height="44px" viewBox="0 0 44 44" version="1.1" xmlns="http://www.w3.org/2000/svg" xmlns:xlink="http://www.w3.org/1999/xlink">
    <!-- Generator: Sketch 47.1 (45422) - http://www.bohemiancoding.com/sketch -->
    <title>Twitter</title>
    <desc>Created with Sketch.</desc>
    <defs></defs>
    <g id="Page-1" stroke="none" stroke-width="1" fill="none" fill-rule="evenodd">
        <g id="Twitter" fill="#08BBEE">
            <path d="M5.0104641,26.0310537 C5.52546516,26.1244311 6.05601219,26.1731944 6.59795388,26.1731944 C7.55210385,26.1731944 8.47093307,26.0220397 9.3317808,25.7423802 C5.11181518,25.0759836 1.88512968,21.423946 1.88512968,17.0186302 C1.88512968,16.9503071 1.88590581,16.8821653 1.88744975,16.8142129 C3.13695995,17.5234072 4.57639661,17.9369735 6.11055987,17.959757 C3.57602068,16.4070717 1.88512968,13.6127998 1.88512968,10.423785 C1.88512968,8.76805237 2.34093875,7.21872956 3.13397757,5.89434 C7.62756566,11.2661977 14.2200741,14.8235871 21.6512046,15.3068096 C21.5150697,14.6821208 21.4433501,14.0333881 21.4433501,13.3679123 C21.4433501,8.35984248 25.5051062,4.30000019 30.5155367,4.30000019 C33.1331798,4.30000019 35.4918895,5.40810267 37.1477541,7.18060503 C39.202342,6.85437828 41.1119172,6.09301897 42.7789855,4.99397536 C42.1640293,7.09248454 40.7645288,8.85597687 38.9194209,9.94567641 C40.7255264,9.7777895 42.4319143,9.28747155 44,8.55150265 C42.8766557,10.3890744 41.3676908,11.9654606 39.5855676,13.1682521 C39.5870023,13.2346323 39.5877233,13.3011881 39.5877233,13.3679123 C39.5877233,13.5448462 39.5839072,14.2307221 39.5839072,14.4003783 C39.5839072,28.5465496 28.1107651,40.0142859 13.9579256,40.0142859 C8.80959677,40.0142859 4.01586179,38.4968055 0,35.8849247 C0.713791014,35.9677142 1.43985564,36.0102728 2.17586506,36.0102728 C6.43914934,36.0102728 10.3687636,34.5823355 13.5121009,32.1788548 C9.48757204,32.1792141 6.14707851,29.5966134 5.0104641,26.0310537 Z" id="icon"></path>
        </g>
    </g>
</svg>