<svg xmlns="http://www.w3.org/2000/svg" width="44" height="44" viewBox="0 0 44 44">
    <path fill="#000" fill-rule="evenodd" d="M44 8.487c0 .165-.05.315-.147.451-.1.133-.205.202-.325.202-.964.097-1.757.419-2.368.97-.616.548-1.247 1.6-1.9 3.146l-9.985 23.418c-.066.217-.247.326-.55.326-.235 0-.417-.109-.549-.326l-5.6-12.188-6.439 12.188c-.131.217-.313.326-.55.326-.286 0-.475-.109-.568-.326l-9.81-23.418c-.612-1.454-1.258-2.469-1.939-3.045-.677-.576-1.625-.934-2.837-1.071-.104 0-.205-.057-.294-.173A.605.605 0 0 1 0 8.572C0 8.189.104 8 .313 8c.875 0 1.788.04 2.744.12.886.085 1.722.126 2.504.126.797 0 1.738-.04 2.821-.125C9.516 8.04 10.522 8 11.397 8c.209 0 .313.19.313.572 0 .379-.066.568-.193.568-.875.068-1.564.302-2.067.693-.503.394-.754.91-.754 1.55 0 .327.104.733.313 1.22l8.107 19.056 4.602-9.046-4.288-9.357c-.77-1.667-1.405-2.747-1.9-3.23-.496-.48-1.246-.777-2.253-.886-.092 0-.178-.057-.263-.173a.64.64 0 0 1-.127-.395c0-.383.089-.572.274-.572.875 0 1.676.04 2.407.12.705.085 1.455.126 2.253.126.781 0 1.61-.04 2.484-.125.902-.08 1.788-.121 2.662-.121.21 0 .314.19.314.572 0 .379-.062.568-.194.568-1.749.125-2.623.64-2.623 1.55 0 .407.2 1.04.607 1.894l2.837 5.993 2.82-5.482c.392-.773.59-1.426.59-1.957 0-1.249-.875-1.914-2.625-1.998-.158 0-.236-.19-.236-.568 0-.137.039-.266.116-.387.082-.125.16-.185.236-.185.627 0 1.398.04 2.31.12a23.16 23.16 0 0 0 2.156.126c.403 0 .999-.037 1.78-.105A27.68 27.68 0 0 1 33.544 8c.155 0 .232.161.232.487 0 .435-.143.653-.43.653-1.017.109-1.838.403-2.457.878-.62.475-1.393 1.555-2.318 3.238l-3.762 7.238 5.093 10.799 7.52-18.198c.259-.664.39-1.277.39-1.833 0-1.333-.874-2.038-2.624-2.122-.158 0-.236-.19-.236-.568 0-.383.116-.572.352-.572.639 0 1.397.04 2.272.12.809.085 1.49.126 2.036.126.576 0 1.242-.04 1.996-.125.786-.08 1.49-.121 2.117-.121.182 0 .275.161.275.487z"/>
</svg>
